<svg width="20" height="20" viewBox="0 0 20 20" fill="none" xmlns="http://www.w3.org/2000/svg">
<g id="icon-park-outline:dribble" clip-path="url(#clip0_1921_68265)">
<g id="Group">
<path id="Vector" d="M18.3333 9.99984C18.3347 11.0975 18.1186 12.1845 17.6974 13.1981C17.2763 14.2117 16.6584 15.1318 15.8796 15.9053C15.1071 16.6764 14.1902 17.2877 13.1814 17.7043C12.1725 18.1209 11.0914 18.3346 9.99997 18.3332C5.39747 18.3332 1.66663 14.6023 1.66663 9.99984C1.66372 7.86308 2.4845 5.80741 3.9583 4.26026C4.73594 3.43968 5.67285 2.7864 6.71169 2.34042C7.75053 1.89444 8.86944 1.66512 9.99997 1.66651C11.0914 1.6651 12.1725 1.8788 13.1814 2.29539C14.1902 2.71199 15.1071 3.32331 15.8796 4.09443C16.6584 4.86785 17.2763 5.78796 17.6974 6.80157C18.1186 7.81519 18.3347 8.90221 18.3333 9.99984V9.99984Z" stroke="white" stroke-width="1.5" stroke-linecap="round" stroke-linejoin="round"/>
<path id="Vector_2" d="M18.3332 9.99998C17.1174 9.99998 13.7632 9.54165 10.7612 10.8596C7.49991 12.2916 5.13866 14.5129 4.1095 15.8946" stroke="white" stroke-width="1.5" stroke-linecap="round" stroke-linejoin="round"/>
<path id="Vector_3" d="M6.875 2.27246C8.17917 3.47621 11.025 6.54079 12.0833 9.58329C13.1417 12.6258 13.5333 16.3666 13.775 17.4312" stroke="white" stroke-width="1.5" stroke-linecap="round" stroke-linejoin="round"/>
<path id="Vector_4" d="M1.73083 8.9583C3.305 9.0533 7.47209 9.13872 10.1388 7.99997C12.8054 6.86122 15.1 4.76663 15.8871 4.10205M2.29167 13.1721C3.02597 14.9495 4.35029 16.4197 6.04167 17.335" stroke="white" stroke-width="1.5" stroke-linecap="round" stroke-linejoin="round"/>
<path id="Vector_5" d="M1.66663 9.99984C1.66372 7.86308 2.4845 5.80741 3.9583 4.26026M9.99997 1.66651C8.86944 1.66512 7.75053 1.89444 6.71169 2.34042C5.67285 2.7864 4.73594 3.43968 3.9583 4.26026M13.3333 2.35984C14.2823 2.77507 15.1458 3.36328 15.8796 4.09443C16.6584 4.86785 17.2763 5.78796 17.6974 6.80157C18.1186 7.81519 18.3347 8.90221 18.3333 9.99984C18.3333 11.0257 18.1479 12.0086 17.8083 12.9165M9.99997 18.3332C11.0914 18.3346 12.1725 18.1209 13.1814 17.7043C14.1902 17.2877 15.1071 16.6764 15.8796 15.9053" stroke="white" stroke-width="1.5" stroke-linecap="round" stroke-linejoin="round"/>
</g>
</g>
<defs>
<clipPath id="clip0_1921_68265">
<rect width="20" height="20" fill="white"/>
</clipPath>
</defs>
</svg>
