<svg width="20" height="20" viewBox="0 0 20 20" fill="none" xmlns="http://www.w3.org/2000/svg">
<g id="ant-design:instagram-outlined">
<path id="Vector" d="M9.99997 5.99423C7.78317 5.99423 5.99411 7.7833 5.99411 10.0001C5.99411 12.2169 7.78317 14.006 9.99997 14.006C12.2168 14.006 14.0058 12.2169 14.0058 10.0001C14.0058 7.7833 12.2168 5.99423 9.99997 5.99423ZM9.99997 12.6036C8.56638 12.6036 7.39646 11.4337 7.39646 10.0001C7.39646 8.5665 8.56638 7.39658 9.99997 7.39658C11.4336 7.39658 12.6035 8.5665 12.6035 10.0001C12.6035 11.4337 11.4336 12.6036 9.99997 12.6036ZM14.1699 4.89658C13.6523 4.89658 13.2343 5.31455 13.2343 5.83212C13.2343 6.3497 13.6523 6.76767 14.1699 6.76767C14.6875 6.76767 15.1054 6.35166 15.1054 5.83212C15.1056 5.70922 15.0815 5.5875 15.0345 5.47392C14.9876 5.36035 14.9187 5.25715 14.8318 5.17025C14.7449 5.08334 14.6417 5.01444 14.5281 4.96748C14.4145 4.92052 14.2928 4.89642 14.1699 4.89658ZM17.8086 10.0001C17.8086 8.92197 17.8183 7.85361 17.7578 6.77744C17.6972 5.52744 17.4121 4.41806 16.498 3.504C15.582 2.58798 14.4746 2.30478 13.2246 2.24423C12.1465 2.18369 11.0781 2.19345 10.0019 2.19345C8.9238 2.19345 7.85544 2.18369 6.77927 2.24423C5.52927 2.30478 4.41989 2.58994 3.50583 3.504C2.58981 4.42001 2.30661 5.52744 2.24606 6.77744C2.18552 7.85556 2.19528 8.92392 2.19528 10.0001C2.19528 11.0763 2.18552 12.1466 2.24606 13.2227C2.30661 14.4727 2.59177 15.5821 3.50583 16.4962C4.42185 17.4122 5.52927 17.6954 6.77927 17.756C7.85739 17.8165 8.92575 17.8067 10.0019 17.8067C11.08 17.8067 12.1484 17.8165 13.2246 17.756C14.4746 17.6954 15.584 17.4102 16.498 16.4962C17.414 15.5802 17.6972 14.4727 17.7578 13.2227C17.8203 12.1466 17.8086 11.0782 17.8086 10.0001ZM16.0898 14.6056C15.9472 14.961 15.7754 15.2267 15.5 15.5001C15.2246 15.7755 14.9609 15.9474 14.6054 16.0899C13.5781 16.4981 11.1386 16.4063 9.99997 16.4063C8.8613 16.4063 6.41989 16.4981 5.39255 16.0919C5.03708 15.9493 4.77146 15.7774 4.49802 15.502C4.22263 15.2267 4.05075 14.963 3.90817 14.6075C3.50192 13.5782 3.59372 11.1388 3.59372 10.0001C3.59372 8.86142 3.50192 6.42001 3.90817 5.39267C4.05075 5.0372 4.22263 4.77158 4.49802 4.49814C4.77341 4.2247 5.03708 4.05087 5.39255 3.9083C6.41989 3.50205 8.8613 3.59384 9.99997 3.59384C11.1386 3.59384 13.5801 3.50205 14.6074 3.9083C14.9629 4.05087 15.2285 4.22275 15.5019 4.49814C15.7773 4.77353 15.9492 5.0372 16.0918 5.39267C16.498 6.42001 16.4062 8.86142 16.4062 10.0001C16.4062 11.1388 16.498 13.5782 16.0898 14.6056Z" fill="white"/>
</g>
</svg>
